PathFileType	4	(X/Y/Z)	/Users/niels/Desktop/University/Third Semester/Perception and Action/Exam/Gymnastics Motion Tracking/Code for Gym Tracking/Analyzed Data/Webcam_Backflip/id4_5_baseline_Sports2D/id4_5_baseline_Sports2D_px_person00.trc
DataRate	CameraRate	NumFrames	NumMarkers	Units	OrigDataRate	OrigDataStartFrame	OrigNumFrames
29.8125	29.8125	10	22	m	29.8125	100	160
Frame#	Time	Hip			RHip			RKnee			RAnkle			RBigToe			RSmallToe			RHeel			LHip			LKnee			LAnkle			LBigToe			LSmallToe			LHeel			Neck			Head			Nose			RShoulder			RElbow			RWrist			LShoulder			LElbow			LWrist		
		X1	Y1	Z1	X2	Y2	Z2	X3	Y3	Z3	X4	Y4	Z4	X5	Y5	Z5	X6	Y6	Z6	X7	Y7	Z7	X8	Y8	Z8	X9	Y9	Z9	X10	Y10	Z10	X11	Y11	Z11	X12	Y12	Z12	X13	Y13	Z13	X14	Y14	Z14	X15	Y15	Z15	X16	Y16	Z16	X17	Y17	Z17	X18	Y18	Z18	X19	Y19	Z19	X20	Y20	Z20	X21	Y21	Z21	X22	Y22	Z22
100	3.354297693920335	0.8354179029172356	-0.5755875872259766	0.0	0.8341218395518029	-0.5729234823178808	0.0	0.8646739712860321	-0.6742260442971095	0.0	0.8312264380642901	-0.7742375011666658	0.0	0.8622469742785636	-0.7983699887441253	0.0	0.8563470872206849	-0.8001116759400518	0.0	0.8189110618372468	-0.7906141034895723	0.0	0.8386022760656232	-0.5725652742947935	0.0	0.8626491265382961	-0.6750425716109417	0.0	0.8300209606091484	-0.7719810334429205	0.0	0.863763127587666	-0.7976344147954912	0.0	0.860707915047903	-0.791448482117511	0.0	0.8167609472543451	-0.7834480986341276	0.0	0.836616068315864	-0.4317170261201232	0.0	0.8591274499873847	-0.361998887368967	0.0	0.8631527345761181	-0.400124194531159	0.0	0.8328594932373675	-0.4324010546787505	0.0	0.8701813826839939	-0.371343120568953	0.0	0.8968226377267574	-0.3098237661290264	0.0	0.8392340944011845	-0.4350274249300731	0.0	0.88340122834339	-0.38041753245958115	0.0	0.9113441438739162	-0.3283370572716554	0.0
101	3.3878406708595383	0.8353351069374939	-0.5616230110278538	0.0	0.8343451149605124	-0.5589881040446621	0.0	0.8677671731967255	-0.6609307580300695	0.0	0.8330096893544884	-0.7621618074746087	0.0	0.8651952522661811	-0.7867451961867711	0.0	0.8588012723121535	-0.7886315782678573	0.0	0.8211029559033223	-0.7791957227743761	0.0	0.837985419123605	-0.5585987635399096	0.0	0.8640814140574132	-0.6616433501152098	0.0	0.831636066336047	-0.7598130749688778	0.0	0.8679283474856321	-0.7859981381222375	0.0	0.8634994774478927	-0.7799013117741446	0.0	0.818389072701121	-0.7711850685631719	0.0	0.8364405748503468	-0.4183795381120983	0.0	0.8603509556501464	-0.34843147908956223	0.0	0.8642678317564566	-0.38633133110881196	0.0	0.8332346378561944	-0.4182451525983587	0.0	0.8726026356420634	-0.35791260452371937	0.0	0.9004197546860643	-0.2969372365343322	0.0	0.8390869682595725	-0.42053009591006446	0.0	0.8844644575357754	-0.36814063737907726	0.0	0.9145170289337915	-0.3167787757801522	0.0
102	3.421383647798742	0.8352159443724589	-0.5487075322015816	0.0	0.8345052202190597	-0.5461757209969643	0.0	0.8697955324247092	-0.6491334344226027	0.0	0.8349156201939898	-0.7520425239138676	0.0	0.8683293002257998	-0.77729331897029	0.0	0.8614469921777953	-0.779238274469838	0.0	0.8233386064775605	-0.7695773169832416	0.0	0.8374287737736678	-0.5457690894620761	0.0	0.8654471874301105	-0.6496617691250974	0.0	0.8333814542899938	-0.7496464935247544	0.0	0.8715365268557035	-0.7765222997656575	0.0	0.865932957347706	-0.770511165791126	0.0	0.8202768533818485	-0.7609436696747621	0.0	0.8367301257115807	-0.4057852988006173	0.0	0.8619557163754947	-0.33544650919340624	0.0	0.8656404076819495	-0.37297916190817204	0.0	0.8339004262076042	-0.4050860052725973	0.0	0.8751983512905029	-0.34518082399656214	0.0	0.9038529879148267	-0.28460641579458323	0.0	0.8393598420045298	-0.4069614116163659	0.0	0.8855954208529688	-0.3568181496378797	0.0	0.9170904890100904	-0.3057058235943219	0.0
103	3.454926624737945	0.8351729119338259	-0.5380584386191275	0.0	0.8347470730295666	-0.535642296229993	0.0	0.870713665103719	-0.6397922622687928	0.0	0.8369470526726795	-0.7447169922511849	0.0	0.8713064197304538	-0.7707010337669704	0.0	0.8639779002761945	-0.7726541282265457	0.0	0.8256489002299129	-0.7625603415914283	0.0	0.8370485470345183	-0.5352108083167153	0.0	0.8661906944072383	-0.6401807453015006	0.0	0.8351131245719196	-0.7422993021116479	0.0	0.8742980324453432	-0.7699998582475996	0.0	0.8678508957813443	-0.7639588039636153	0.0	0.8223670754259231	-0.7535816679134236	0.0	0.8375587531536728	-0.3949552482036313	0.0	0.8640485298765953	-0.3240982068549529	0.0	0.8672482901816903	-0.36125691440022195	0.0	0.8349611730517923	-0.39410159696078473	0.0	0.8776556498690457	-0.3342273882040427	0.0	0.9067026369998662	-0.27385736239413494	0.0	0.8401164364046284	-0.3955272928540598	0.0	0.886785053246052	-0.34711232188098917	0.0	0.9189152741653485	-0.2959012661207845	0.0
104	3.4884696016771484	0.8353763778214401	-0.5306519860689771	0.0	0.8352522471184598	-0.5283738940944864	0.0	0.8705630464953282	-0.6336193317721626	0.0	0.8389813670370541	-0.7406319364274238	0.0	0.8737320338183887	-0.767167550477846	0.0	0.8660619192692762	-0.7691079627133065	0.0	0.827990541333619	-0.7585752908593981	0.0	0.8369731796759603	-0.5278772397790641	0.0	0.8659436855537239	-0.6339609720275063	0.0	0.8367417713161867	-0.7382029894434796	0.0	0.876075291793348	-0.7666551973727217	0.0	0.8692096270401086	-0.7604082866335103	0.0	0.8246218445019886	-0.749567592172516	0.0	0.838830819405969	-0.386775088189786	0.0	0.8664444624586256	-0.3152767387610021	0.0	0.8689178886566366	-0.3522001106059627	0.0	0.8364279158958463	-0.3862986829152431	0.0	0.8798323833374905	-0.3261931955010988	0.0	0.9087745697930538	-0.26586015754946724	0.0	0.8411661745570641	-0.3871839985847206	0.0	0.8877130837398371	-0.3394669739514893	0.0	0.919699443488407	-0.2878113189219326	0.0
105	3.522012578616352	0.8359512286549119	-0.5271283364758396	0.0	0.8361470565694978	-0.5250300476666493	0.0	0.8694598329230062	-0.6310496015038486	0.0	0.8407859097284223	-0.7398134279327807	0.0	0.875177631259297	-0.7665225856439923	0.0	0.8673743023588929	-0.7684478367826142	0.0	0.8302121860896111	-0.7576917008373363	0.0	0.8372810385264781	-0.5244329657683271	0.0	0.8646239216421021	-0.6314092948350857	0.0	0.8381528814705435	-0.7374206593727628	0.0	0.8766848812086413	-0.7663311206095357	0.0	0.8699209847652045	-0.7597289871615024	0.0	0.8269038985175802	-0.7489913167723274	0.0	0.8403586373476754	-0.38198585558666537	0.0	0.8686606185252653	-0.30970855184988233	0.0	0.8703783082256326	-0.3466376767470628	0.0	0.8382059302022414	-0.38237447020035814	0.0	0.8816116634023311	-0.3219956295546997	0.0	0.9099972304112376	-0.2616015464999688	0.0	0.8422031845561944	-0.3826242821159336	0.0	0.8880225829274889	-0.33444703498597633	0.0	0.9192118709628715	-0.2819338594235017	0.0
106	3.555555555555555	0.836914463777663	-0.5277253296891862	0.0	0.8374493617131273	-0.5258088279242978	0.0	0.8675527439223123	-0.6322197165889997	0.0	0.8420624363368261	-0.7419477976410724	0.0	0.875276262836168	-0.7684505387110099	0.0	0.8676565080097826	-0.7703668698027117	0.0	0.8320523894497963	-0.759687521259488	0.0	0.8379712673778529	-0.525088087301945	0.0	0.8624460585961169	-0.632589321209304	0.0	0.8391650075330418	-0.7396837729657617	0.0	0.8759403962938895	-0.768699259671085	0.0	0.869832038535056	-0.7617158240238938	0.0	0.8289241479298042	-0.7515901152932508	0.0	0.8419545695036259	-0.3810834233598105	0.0	0.870142585379334	-0.3079302413979306	0.0	0.8713906233110393	-0.34509340695865387	0.0	0.8401214291101196	-0.38261545422781823	0.0	0.8828294581433933	-0.3220063481318593	0.0	0.9103587765391578	-0.2615583424747071	0.0	0.8429906782619285	-0.3822100421646512	0.0	0.8875356575398924	-0.3327426377248547	0.0	0.91744599704483	-0.27900324072979044	0.0
107	3.5890985324947584	0.8381938729762353	-0.5322599084425914	0.0	0.8390728036340162	-0.5304393515237719	0.0	0.8649924050829457	-0.6369600329614641	0.0	0.8425527915641734	-0.7465711543490743	0.0	0.8738780777934948	-0.7726820892624604	0.0	0.8667923435321484	-0.774599074993602	0.0	0.8332388571638909	-0.7641599677711814	0.0	0.8389703047548651	-0.5295655231439854	0.0	0.859792721273389	-0.6372798550252792	0.0	0.8396082822820741	-0.7445271154942659	0.0	0.8738366251843809	-0.7733964062987864	0.0	0.8688179778198678	-0.766164797230148	0.0	0.8303703534299975	-0.7568607613544258	0.0	0.8434931183508976	-0.38419677829313265	0.0	0.8705836216958217	-0.3102109935153547	0.0	0.8718633127021437	-0.34769174767778854	0.0	0.8419767558341466	-0.3868710750615493	0.0	0.8834237339453906	-0.3259480616300867	0.0	0.9099673117562062	-0.2656035397688274	0.0	0.8434534373807062	-0.3859063023531235	0.0	0.8863180991573006	-0.3348041313268038	0.0	0.9146387794077974	-0.27968631702374797	0.0
108	3.622641509433962	0.8396737236437122	-0.5401500673307339	0.0	0.8408775770685614	-0.5382608633684751	0.0	0.8619316771315606	-0.6448258684416223	0.0	0.8421767395984456	-0.753218441626434	0.0	0.871191624001483	-0.778980871369785	0.0	0.8648847564712804	-0.7809093414065772	0.0	0.8336427314092233	-0.7706289783336555	0.0	0.8401647137021201	-0.5372232568514306	0.0	0.8570278029531122	-0.6450510479222961	0.0	0.8394562371714505	-0.7514550958894294	0.0	0.8706809756034675	-0.7800683819601798	0.0	0.8669066736962701	-0.7727946034056435	0.0	0.831092276981339	-0.7642031988916033	0.0	0.8449176642866406	-0.3909812579168873	0.0	0.8700594222844388	-0.3164267993422385	0.0	0.87188564508507	-0.35410625197667606	0.0	0.8436310701813686	-0.39458538207579225	0.0	0.8835666615623468	-0.33301751256124135	0.0	0.9090761943612209	-0.27301820611465055	0.0	0.8436565586287201	-0.3932506496455831	0.0	0.8846253307825497	-0.34048299950787364	0.0	0.9111443689736752	-0.2841123327003218	0.0
109	3.656184486373165	0.8412394949089474	-0.5504709233092475	0.0	0.8427204923398823	-0.5483514605380448	0.0	0.8585695570594758	-0.6551355346897625	0.0	0.841089287987143	-0.761453881372153	0.0	0.8677282585133553	-0.7869677144650186	0.0	0.8622582121927816	-0.788918780771756	0.0	0.8333372812556	-0.7785867750688736	0.0	0.8414539871367895	-0.5471865893626915	0.0	0.8543880557128438	-0.6552678007165785	0.0	0.83884256755218	-0.7599975433740301	0.0	0.8670068552368729	-0.788290922134593	0.0	0.8643154452597732	-0.7811581182211492	0.0	0.8311348361579824	-0.7730027905793538	0.0	0.8461959358578449	-0.40061259528503806	0.0	0.8689107089207371	-0.32596269302570186	0.0	0.8716464808202055	-0.36357600109868854	0.0	0.8450112605996892	-0.40490418301927017	0.0	0.8835412824112233	-0.34223771956773086	0.0	0.9079777548826661	-0.28269237877880954	0.0	0.8437088028058002	-0.40340294373108965	0.0	0.8827363514676393	-0.34905499606294427	0.0	0.9073071557237368	-0.2917407120043993	0.0
